<?xml version="1.0" encoding="utf-8"?>
<!-- Generator: Adobe Illustrator 16.0.0, SVG Export Plug-In . SVG Version: 6.00 Build 0)  -->
<!DOCTYPE svg PUBLIC "-//W3C//DTD SVG 1.1//EN" "http://www.w3.org/Graphics/SVG/1.1/DTD/svg11.dtd">
<svg version="1.1" id="Layer_1" xmlns="http://www.w3.org/2000/svg" xmlns:xlink="http://www.w3.org/1999/xlink" x="0px" y="0px"
	 width="256px" height="256px" viewBox="0 0 256 256" enable-background="new 0 0 256 256" xml:space="preserve">
<g>
	<path fill="#00C300" d="M205.57,5.873L49.625,5.653C25.136,5.619,5.25,25.447,5.214,49.941L4.995,205.895
		c-0.033,24.495,19.797,44.386,44.286,44.418l155.945,0.22c24.495,0.034,44.376-19.794,44.411-44.296l0.219-155.954
		C249.892,25.791,230.063,5.905,205.57,5.873z"/>
	<g>
		<g>
			<path fill="#FFFFFF" d="M216.619,117.325c0-39.894-39.996-72.349-89.153-72.349s-89.155,32.456-89.155,72.349
				c0,35.763,31.718,65.717,74.562,71.384c2.901,0.625,6.853,1.917,7.853,4.396c0.9,2.252,0.589,5.781,0.288,8.06
				c0,0-1.042,6.291-1.271,7.634c-0.388,2.253-1.792,8.813,7.723,4.806c9.517-4.008,51.34-30.234,70.044-51.765h-0.004
				C210.428,147.673,216.619,133.292,216.619,117.325z M92.565,141.062H74.852c-2.577,0-4.675-2.098-4.675-4.679v-35.427
				c0-2.578,2.098-4.675,4.675-4.675c2.578,0,4.673,2.097,4.673,4.675v30.752h13.04c2.581,0,4.674,2.098,4.674,4.675
				C97.24,138.964,95.146,141.062,92.565,141.062z M110.888,136.383c0,2.581-2.097,4.679-4.672,4.679
				c-2.577,0-4.673-2.098-4.673-4.679v-35.427c0-2.578,2.097-4.675,4.673-4.675c2.575,0,4.672,2.097,4.672,4.675V136.383z
				 M153.529,136.383c0,2.02-1.281,3.8-3.195,4.435c-0.481,0.163-0.982,0.244-1.483,0.244c-1.459,0-2.855-0.699-3.737-1.872
				l-18.153-24.723v21.916c0,2.581-2.095,4.679-4.675,4.679c-2.578,0-4.676-2.098-4.676-4.679v-35.427
				c0-2.015,1.286-3.797,3.195-4.435c0.481-0.162,0.982-0.241,1.485-0.241c1.458,0,2.857,0.697,3.733,1.869l18.159,24.725v-21.918
				c0-2.578,2.1-4.675,4.675-4.675c2.581,0,4.673,2.097,4.673,4.675V136.383z M182.193,113.995c2.582,0,4.676,2.098,4.676,4.677
				c0,2.576-2.094,4.673-4.676,4.673h-13.036v8.363h13.036c2.576,0,4.676,2.098,4.676,4.675c0,2.581-2.1,4.679-4.676,4.679h-17.715
				c-2.573,0-4.675-2.098-4.675-4.679v-17.701c0-0.006,0-0.006,0-0.011v-17.715c0-2.578,2.097-4.675,4.675-4.675h17.715
				c2.582,0,4.676,2.097,4.676,4.675s-2.094,4.675-4.676,4.675h-13.036v8.364H182.193z"/>
		</g>
	</g>
</g>
</svg>
